<svg class="diagram-root" style="background: #f5f6f6" xmlns="http://www.w3.org/2000/svg" xmlns:xlink="http://www.w3.org/1999/xlink"><style>.diagram-root { font-family: "Helvetica Neue", sans-serif; font-size: 12px; } .t { overflow: visible; } .t-bg { y: 40; fill: #fff;   } .th { fill: #005aa0;   } .tht { fill: #fff; font-size: 14px;  } .tf { fill: #323c46; overflow: visible; } .tf.pk { fill: #005aa0; font-weight: bold; } .tf.fk { font-weight: bold; } .ty { fill: #adb1b5; font-weight: normal; text-anchor: end; } .r { fill: transparent; stroke: #c3c3c3; stroke-width: 1; } .l { stroke: 1; } .i { fill: #c2c7ce; stroke: #c2c7ce; } .i.ix { fill: #afb3b6; stroke: #000; } .fa { fill: transparent; overflow: visible; } .fa .bg.hover { fill: #f7f7f7; } .c { cy: 12; r: 4; stroke: #d2d2dc; fill: #d2d2dc; } .hr { fill: transparent; stroke: #323c46; stroke-opacity: 0.035; stroke-width: 13; } .dc { stroke: #fa5a3c; fill: #fa5a3c; } .x { stroke: white; stroke-width: 1; } .hl .th { fill: #1b9bff; } .hl .tht {  } .fhl .bg { fill: #e7f4ff; } .fhls .bg {  } .r.hl { stroke: #1b9bff; } .dim { opacity: 0.25; }</style><g class="drawing-wrapper" transform="translate(2, 18) scale(1,1)"><g class="rs"><path d="M 599 424 m -1, 0 a 1,1 0 1,0 2,0 a 1,1 0 1,0 -2,0 M 599 424 m -0.5, 0 a 0.5,0.5 0 1,0 1,0 a 0.5,0.5 0 1,0 -1,0  M599 424 L599 424 587 424 M 599 430 m -1, 0 a 1,1 0 1,0 2,0 a 1,1 0 1,0 -2,0 M 599 430 m -0.5, 0 a 0.5,0.5 0 1,0 1,0 a 0.5,0.5 0 1,0 -1,0  M599 430 L599 430 592 424 599 418 M 599 418 m -1, 0 a 1,1 0 1,0 2,0 a 1,1 0 1,0 -2,0 M 599 418 m -0.5, 0 a 0.5,0.5 0 1,0 1,0 a 0.5,0.5 0 1,0 -1,0  M587 424 Q 503.59 424, 420.18 470 T 253.36 516 M 241.36 516 m -1, 0 a 1,1 0 1,0 2,0 a 1,1 0 1,0 -2,0 M 241.36 516 m -0.5, 0 a 0.5,0.5 0 1,0 1,0 a 0.5,0.5 0 1,0 -1,0  M241.36 516 L241.36 516 253.36 516 M247.36 522 L247.36 522 247.36 510" id="h1376273841" class="r"></path><path d="M 915 295 m -1, 0 a 1,1 0 1,0 2,0 a 1,1 0 1,0 -2,0 M 915 295 m -0.5, 0 a 0.5,0.5 0 1,0 1,0 a 0.5,0.5 0 1,0 -1,0  M915 295 L915 295 903 295 M909 301 L909 301 909 289 M903 295 Q 870.85 295, 838.69 347 T 774.38 399 M 762.38 399 m -1, 0 a 1,1 0 1,0 2,0 a 1,1 0 1,0 -2,0 M 762.38 399 m -0.5, 0 a 0.5,0.5 0 1,0 1,0 a 0.5,0.5 0 1,0 -1,0  M762.38 399 L762.38 399 765.38 399 M 768.38 399 m -3, 0 a 3,3 0 1,0 6,0 a 3,3 0 1,0 -6,0 M771.38 399 L771.38 399 774.38 399" id="h3956705904" class="r"></path><path d="M 459.31 311 m -1, 0 a 1,1 0 1,0 2,0 a 1,1 0 1,0 -2,0 M 459.31 311 m -0.5, 0 a 0.5,0.5 0 1,0 1,0 a 0.5,0.5 0 1,0 -1,0  M459.31 311 L459.31 311 471.31 311 M 459.31 317 m -1, 0 a 1,1 0 1,0 2,0 a 1,1 0 1,0 -2,0 M 459.31 317 m -0.5, 0 a 0.5,0.5 0 1,0 1,0 a 0.5,0.5 0 1,0 -1,0  M459.31 317 L459.31 317 466.31 311 459.31 305 M 459.31 305 m -1, 0 a 1,1 0 1,0 2,0 a 1,1 0 1,0 -2,0 M 459.31 305 m -0.5, 0 a 0.5,0.5 0 1,0 1,0 a 0.5,0.5 0 1,0 -1,0  M471.31 311 Q 500.24 311, 529.16 355 T 587 399 M 599 399 m -1, 0 a 1,1 0 1,0 2,0 a 1,1 0 1,0 -2,0 M 599 399 m -0.5, 0 a 0.5,0.5 0 1,0 1,0 a 0.5,0.5 0 1,0 -1,0  M599 399 L599 399 587 399 M593 405 L593 405 593 393" id="h1854857342" class="r"></path><path d="M 294 336 m -1, 0 a 1,1 0 1,0 2,0 a 1,1 0 1,0 -2,0 M 294 336 m -0.5, 0 a 0.5,0.5 0 1,0 1,0 a 0.5,0.5 0 1,0 -1,0  M294 336 L294 336 282 336 M 294 342 m -1, 0 a 1,1 0 1,0 2,0 a 1,1 0 1,0 -2,0 M 294 342 m -0.5, 0 a 0.5,0.5 0 1,0 1,0 a 0.5,0.5 0 1,0 -1,0  M294 342 L294 342 287 336 294 330 M 294 330 m -1, 0 a 1,1 0 1,0 2,0 a 1,1 0 1,0 -2,0 M 294 330 m -0.5, 0 a 0.5,0.5 0 1,0 1,0 a 0.5,0.5 0 1,0 -1,0  M282 336 Q 263.85 336, 245.7 211.5 T 209.4 87 M 197.4 87 m -1, 0 a 1,1 0 1,0 2,0 a 1,1 0 1,0 -2,0 M 197.4 87 m -0.5, 0 a 0.5,0.5 0 1,0 1,0 a 0.5,0.5 0 1,0 -1,0  M197.4 87 L197.4 87 209.4 87 M203.4 93 L203.4 93 203.4 81" id="h3603497402" class="r"></path><path d="M 301 163 m -1, 0 a 1,1 0 1,0 2,0 a 1,1 0 1,0 -2,0 M 301 163 m -0.5, 0 a 0.5,0.5 0 1,0 1,0 a 0.5,0.5 0 1,0 -1,0  M301 163 L301 163 289 163 M 301 169 m -1, 0 a 1,1 0 1,0 2,0 a 1,1 0 1,0 -2,0 M 301 169 m -0.5, 0 a 0.5,0.5 0 1,0 1,0 a 0.5,0.5 0 1,0 -1,0  M301 169 L301 169 294 163 301 157 M 301 157 m -1, 0 a 1,1 0 1,0 2,0 a 1,1 0 1,0 -2,0 M 301 157 m -0.5, 0 a 0.5,0.5 0 1,0 1,0 a 0.5,0.5 0 1,0 -1,0  M289 163 Q 269.1 163, 249.2 125 T 209.4 87 M 197.4 87 m -1, 0 a 1,1 0 1,0 2,0 a 1,1 0 1,0 -2,0 M 197.4 87 m -0.5, 0 a 0.5,0.5 0 1,0 1,0 a 0.5,0.5 0 1,0 -1,0  M197.4 87 L197.4 87 209.4 87 M203.4 93 L203.4 93 203.4 81" id="h1830075440" class="r"></path><path d="M 460.86 188 m -1, 0 a 1,1 0 1,0 2,0 a 1,1 0 1,0 -2,0 M 460.86 188 m -0.5, 0 a 0.5,0.5 0 1,0 1,0 a 0.5,0.5 0 1,0 -1,0  M460.86 188 L460.86 188 472.86 188 M 460.86 194 m -1, 0 a 1,1 0 1,0 2,0 a 1,1 0 1,0 -2,0 M 460.86 194 m -0.5, 0 a 0.5,0.5 0 1,0 1,0 a 0.5,0.5 0 1,0 -1,0  M460.86 194 L460.86 194 467.86 188 460.86 182 M 460.86 182 m -1, 0 a 1,1 0 1,0 2,0 a 1,1 0 1,0 -2,0 M 460.86 182 m -0.5, 0 a 0.5,0.5 0 1,0 1,0 a 0.5,0.5 0 1,0 -1,0  M472.86 188 Q 501.4 188, 529.93 293.5 T 587 399 M 599 399 m -1, 0 a 1,1 0 1,0 2,0 a 1,1 0 1,0 -2,0 M 599 399 m -0.5, 0 a 0.5,0.5 0 1,0 1,0 a 0.5,0.5 0 1,0 -1,0  M599 399 L599 399 587 399 M593 405 L593 405 593 393" id="h3053176220" class="r"></path></g><g class="hrs"></g><g class="ts"><svg width="167.4" height="100" x="30" y="30" id="h4180888202" class="t"><rect height="40" width="167.4" class="th"></rect><text x="13" y="25" class="tht">department</text><rect height="60" width="167.4" class="t-bg"></rect><text x="13" y="61" class="tf pk">dept_no<tspan x="154.4" class="ty">char(4)</tspan></text><path d="M7,14A2,2 0 0,1 5,12A2,2 0 0,1 7,10A2,2 0 0,1 9,12A2,2 0 0,1 7,14M12.65,10C11.83,7.67 9.61,6 7, 6A6, 6 0 0, 0 1, 12A6, 6 0 0, 0 7, 18C9.61, 18 11.83, 16.33 12.65, 14H17V18H21V14H23V10H12.65Z" class="i pk" transform="translate(96.390234375, 48) scale(0.65)"></path><text x="13" y="86" class="tf">dept_name<tspan x="154.4" class="ty">varchar(30)</tspan></text></svg><svg width="122.04" height="100" x="915" y="238" id="h52730927" class="t"><rect height="40" width="122.04" class="th"></rect><text x="13" y="25" class="tht">salary</text><rect height="60" width="122.04" class="t-bg"></rect><text x="13" y="61" class="tf pk">emp_no<tspan x="109.04" class="ty">int</tspan></text><path d="M7,14A2,2 0 0,1 5,12A2,2 0 0,1 7,10A2,2 0 0,1 9,12A2,2 0 0,1 7,14M12.65,10C11.83,7.67 9.61,6 7, 6A6, 6 0 0, 0 1, 12A6, 6 0 0, 0 7, 18C9.61, 18 11.83, 16.33 12.65, 14H17V18H21V14H23V10H12.65Z" class="i pk" transform="translate(76.366171875, 48) scale(0.65)"></path><text x="13" y="86" class="tf">salary<tspan x="109.04" class="ty">int</tspan></text></svg><svg width="163.38" height="225" x="599" y="342" id="h2075019312" class="t"><rect height="40" width="163.38" class="th"></rect><text x="13" y="25" class="tht">employee</text><rect height="185" width="163.38" class="t-bg"></rect><text x="13" y="61" class="tf pk">emp_no<tspan x="150.38" class="ty">int</tspan></text><path d="M7,14A2,2 0 0,1 5,12A2,2 0 0,1 7,10A2,2 0 0,1 9,12A2,2 0 0,1 7,14M12.65,10C11.83,7.67 9.61,6 7, 6A6, 6 0 0, 0 1, 12A6, 6 0 0, 0 7, 18C9.61, 18 11.83, 16.33 12.65, 14H17V18H21V14H23V10H12.65Z" class="i pk" transform="translate(117.706171875, 48) scale(0.65)"></path><text x="13" y="86" class="tf fk">emp_title_id<tspan x="150.38" class="ty">char(5)</tspan></text><text x="13" y="111" class="tf">birth_date<tspan x="150.38" class="ty">date</tspan></text><text x="13" y="136" class="tf">first_name<tspan x="150.38" class="ty">varchar(30)</tspan></text><text x="13" y="161" class="tf">last_name<tspan x="150.38" class="ty">varchar(30)</tspan></text><text x="13" y="186" class="tf">sex<tspan x="150.38" class="ty">char(1)</tspan></text><text x="13" y="211" class="tf">hire_date<tspan x="150.38" class="ty">date</tspan></text></svg><svg width="149.36" height="100" x="92" y="459" id="h1006881043" class="t"><rect height="40" width="149.36" class="th"></rect><text x="13" y="25" class="tht">title</text><rect height="60" width="149.36" class="t-bg"></rect><text x="13" y="61" class="tf pk">title_id<tspan x="136.36" class="ty">CHAR(5)</tspan></text><path d="M7,14A2,2 0 0,1 5,12A2,2 0 0,1 7,10A2,2 0 0,1 9,12A2,2 0 0,1 7,14M12.65,10C11.83,7.67 9.61,6 7, 6A6, 6 0 0, 0 1, 12A6, 6 0 0, 0 7, 18C9.61, 18 11.83, 16.33 12.65, 14H17V18H21V14H23V10H12.65Z" class="i pk" transform="translate(67.69203125000001, 48) scale(0.65)"></path><text x="13" y="86" class="tf">title<tspan x="136.36" class="ty">VARCHAR(20)</tspan></text></svg><svg width="165.31" height="100" x="294" y="254" id="h2282313888" class="t"><rect height="40" width="165.31" class="th"></rect><text x="13" y="25" class="tht">department_employee</text><rect height="60" width="165.31" class="t-bg"></rect><text x="13" y="61" class="tf pk">emp_no<tspan x="152.31" class="ty">int</tspan></text><path d="M7,14A2,2 0 0,1 5,12A2,2 0 0,1 7,10A2,2 0 0,1 9,12A2,2 0 0,1 7,14M12.65,10C11.83,7.67 9.61,6 7, 6A6, 6 0 0, 0 1, 12A6, 6 0 0, 0 7, 18C9.61, 18 11.83, 16.33 12.65, 14H17V18H21V14H23V10H12.65Z" class="i pk" transform="translate(119.636171875, 48) scale(0.65)"></path><text x="13" y="86" class="tf pk">dept_no<tspan x="152.31" class="ty">char(4)</tspan></text><path d="M7,14A2,2 0 0,1 5,12A2,2 0 0,1 7,10A2,2 0 0,1 9,12A2,2 0 0,1 7,14M12.65,10C11.83,7.67 9.61,6 7, 6A6, 6 0 0, 0 1, 12A6, 6 0 0, 0 7, 18C9.61, 18 11.83, 16.33 12.65, 14H17V18H21V14H23V10H12.65Z" class="i pk" transform="translate(94.300234375, 73) scale(0.65)"></path></svg><svg width="159.86" height="100" x="301" y="106" id="h2392569220" class="t"><rect height="40" width="159.86" class="th"></rect><text x="13" y="25" class="tht">department_manager</text><rect height="60" width="159.86" class="t-bg"></rect><text x="13" y="61" class="tf pk">dept_no<tspan x="146.86" class="ty">char(4)</tspan></text><path d="M7,14A2,2 0 0,1 5,12A2,2 0 0,1 7,10A2,2 0 0,1 9,12A2,2 0 0,1 7,14M12.65,10C11.83,7.67 9.61,6 7, 6A6, 6 0 0, 0 1, 12A6, 6 0 0, 0 7, 18C9.61, 18 11.83, 16.33 12.65, 14H17V18H21V14H23V10H12.65Z" class="i pk" transform="translate(88.85023437500001, 48) scale(0.65)"></path><text x="13" y="86" class="tf pk">emp_no<tspan x="146.86" class="ty">int</tspan></text><path d="M7,14A2,2 0 0,1 5,12A2,2 0 0,1 7,10A2,2 0 0,1 9,12A2,2 0 0,1 7,14M12.65,10C11.83,7.67 9.61,6 7, 6A6, 6 0 0, 0 1, 12A6, 6 0 0, 0 7, 18C9.61, 18 11.83, 16.33 12.65, 14H17V18H21V14H23V10H12.65Z" class="i pk" transform="translate(114.18617187500001, 73) scale(0.65)"></path></svg></g></g><text class="qdbd-link" x="10" y="20">www.quickdatabasediagrams.com</text></svg>